<?xml version="1.0" encoding="UTF-8"?>
<svg version="1.1" xmlns="http://www.w3.org/2000/svg" width="1024" height="1024">
  <!-- background -->  
  <rect width="1000" height="1000" x="10" y="10" rx="20" ry="20" fill="white" />
  <!--Cloud-->
  <g>
    <!-- fill -->
    <!-- <path d="M0 0 C23.429772 21.19872286 41.12036312 49.23983913 50.52294922 79.37792969 C50.52294922 80.36792969 50.52294922 81.35792969 50.52294922 82.37792969 C52.00794922 81.88292969 52.00794922 81.88292969 53.52294922 81.37792969 C92.03043053 79.69859734 127.85985312 90.70361234 156.71044922 116.81542969 C180.72519537 139.16028904 196.19283932 169.40861352 198.52294922 202.37792969 C198.52661684 203.86231443 198.51963462 205.34675399 198.50341797 206.83105469 C198.21319693 214.78814253 198.21319693 214.78814253 201.45654297 221.72558594 C204.06097175 223.50927429 206.71530478 224.93881585 209.52294922 226.37792969 C238.21072047 246.46886883 257.18184142 277.98938714 266.89794922 311.12792969 C267.25590576 312.33074585 267.25590576 312.33074585 267.62109375 313.55786133 C271.23693546 326.56626365 271.90418919 339.71911471 271.83544922 353.12792969 C271.832715 354.24178543 271.832715 354.24178543 271.82992554 355.37814331 C271.6647851 395.44271843 257.14098463 433.87748732 229.04931641 462.79589844 C227.57367949 464.32534937 226.1288619 465.87917786 224.68701172 467.44042969 C200.72597428 492.94347316 166.9081477 506.51249648 132.52294922 509.37792969 C132.52294922 490.56792969 132.52294922 471.75792969 132.52294922 452.37792969 C128.06794922 454.35792969 128.06794922 454.35792969 123.52294922 456.37792969 C118.6644885 457.85519682 113.54252864 457.52607768 108.50473022 457.52510071 C106.97863174 457.53061574 106.97863174 457.53061574 105.42170298 457.53624219 C102.00801823 457.5472669 98.59436394 457.55112082 95.18066406 457.55493164 C92.7347504 457.56119719 90.28883769 457.56784407 87.84292603 457.57484436 C80.50043792 457.5940599 73.1579579 457.60467059 65.81545204 457.61357215 C62.35409547 457.61796009 58.89274041 457.62332556 55.43138504 457.62856102 C43.91904963 457.6455696 32.40671516 457.6600628 20.89436913 457.66730976 C17.90907159 457.66921952 14.92377407 457.67113987 11.93847656 457.6730957 C10.82556541 457.67382131 10.82556541 457.67382131 9.6901712 457.67456158 C-2.32340012 457.68285838 -14.33687176 457.708191 -26.35039957 457.74067638 C-38.69599845 457.77378645 -51.04154673 457.79176206 -63.38719022 457.794954 C-70.31414499 457.79711538 -77.24095437 457.80580937 -84.16786575 457.83141518 C-90.68662209 457.85545723 -97.20516438 457.85892314 -103.72397232 457.84865379 C-106.1124 457.84815868 -108.5008406 457.85447175 -110.88922882 457.86820984 C-114.15877354 457.88595942 -117.42738365 457.87880674 -120.69692993 457.86567688 C-122.10285776 457.88213075 -122.10285776 457.88213075 -123.53718817 457.89891702 C-134.3523546 457.79460407 -143.7641919 454.01561451 -151.47705078 446.37792969 C-155.93598082 440.95306076 -157.95758628 436.09650169 -160.47705078 429.37792969 C-160.80705078 455.77792969 -161.13705078 482.17792969 -161.47705078 509.37792969 C-226.32205078 509.87292969 -226.32205078 509.87292969 -292.47705078 510.37792969 C-292.80705078 517.96792969 -293.13705078 525.55792969 -293.47705078 533.37792969 C-290.53798828 533.33152344 -287.59892578 533.28511719 -284.57080078 533.23730469 C-281.70460739 533.20605408 -278.83843342 533.18179767 -275.97216797 533.15820312 C-273.98965879 533.13816472 -272.00720815 533.11092616 -270.02490234 533.07617188 C-267.16505437 533.02731015 -264.30599197 533.00488296 -261.44580078 532.98730469 C-260.56839233 532.96665955 -259.69098389 532.9460144 -258.7869873 532.92474365 C-252.86470004 532.92261425 -248.4190104 534.02354927 -243.47705078 537.37792969 C-239.21324566 541.86039148 -237.95264993 545.81376757 -238.09814453 551.88574219 C-239.55147865 561.44478518 -248.82046874 570.10299818 -254.63720703 577.47558594 C-258.45350634 582.32326509 -262.1632929 587.24532398 -265.85205078 592.19042969 C-272.38244571 600.93310341 -278.97268852 609.62804801 -285.60205078 618.29589844 C-288.14170302 621.6181032 -290.66165675 624.9537353 -293.16455078 628.30371094 C-293.74575684 629.07690674 -294.32696289 629.85010254 -294.92578125 630.64672852 C-296.00341178 632.08111031 -297.07580797 633.51944771 -298.14160156 634.96264648 C-301.81527899 639.83298738 -305.52022352 644.3923206 -311.47705078 646.37792969 C-316.72821567 646.99571379 -320.06264294 646.22196209 -324.32861328 643.28808594 C-328.55832056 639.52749165 -331.74397007 634.88029788 -335.05273438 630.32128906 C-337.63627171 626.79627069 -340.31431708 623.34325354 -342.97705078 619.87792969 C-344.09196675 618.41985064 -345.20655414 616.96152029 -346.32080078 615.50292969 C-349.83668396 610.9052363 -353.3672057 606.31893822 -356.89892578 601.73339844 C-358.76889221 599.30258794 -360.63226123 596.86683933 -362.49267578 594.42871094 C-363.02054688 593.73704834 -363.54841797 593.04538574 -364.09228516 592.33276367 C-365.18244291 590.90412952 -366.27228653 589.47525562 -367.36181641 588.04614258 C-370.29780814 584.20235669 -373.25457604 580.376697 -376.24267578 576.57324219 C-376.86625977 575.77813232 -377.48984375 574.98302246 -378.13232422 574.16381836 C-379.32487436 572.64566858 -380.52062435 571.13002453 -381.72021484 569.61743164 C-392.34636357 556.08203931 -392.34636357 556.08203931 -391.90283203 546.93261719 C-390.95314192 541.2344765 -387.9399834 538.72512915 -383.47705078 535.37792969 C-368.37679324 532.63242832 -352.82487003 533.37792969 -337.47705078 533.37792969 C-337.47705078 504.33792969 -337.47705078 475.29792969 -337.47705078 445.37792969 C-341.76705078 445.04792969 -346.05705078 444.71792969 -350.47705078 444.37792969 C-373.59293567 440.61734915 -396.03146844 431.08978956 -413.47705078 415.37792969 C-414.24533203 414.69214844 -415.01361328 414.00636719 -415.80517578 413.29980469 C-428.45318717 401.35937436 -439.98401648 384.58817051 -440.91455078 366.75292969 C-440.59717996 359.64382328 -437.78677479 354.23778926 -432.60205078 349.44042969 C-426.6858134 344.37450172 -420.55151418 344.05765173 -413.10205078 344.12792969 C-412.28994141 344.12019531 -411.47783203 344.11246094 -410.64111328 344.10449219 C-403.04285542 344.12884558 -396.02212007 344.88555265 -390.25439453 350.22167969 C-387.5275674 353.52983041 -385.57243823 357.24243339 -383.52124023 360.98681641 C-374.13498739 378.0172192 -360.15299774 386.81197239 -341.66455078 392.19042969 C-323.08992352 397.19012544 -299.43420843 396.41505234 -282.22705078 387.44042969 C-280.62211404 386.45390894 -279.03509637 385.43695711 -277.47705078 384.37792969 C-276.87634766 383.98863281 -276.27564453 383.59933594 -275.65673828 383.19824219 C-270.40596395 379.37230109 -266.57213304 372.77908061 -265.47705078 366.37792969 C-265.33135218 363.73854357 -265.24642397 361.14252689 -265.22705078 358.50292969 C-265.19611328 357.46072266 -265.19611328 357.46072266 -265.16455078 356.39746094 C-265.11448431 349.75113704 -267.42633727 344.88478366 -271.80908203 339.93652344 C-285.0219482 327.59007472 -305.31313254 322.14390689 -322.12405396 316.82138062 C-325.1733676 315.855336 -328.21806475 314.87578808 -331.26196289 313.89282227 C-338.36611792 311.60120383 -345.47419776 309.32199234 -352.59375 307.07861328 C-370.89215177 301.30842979 -389.62263275 294.95467029 -404.47705078 282.37792969 C-405.33298828 281.68183594 -406.18892578 280.98574219 -407.07080078 280.26855469 C-422.16785358 267.44515442 -430.4737311 249.79346316 -432.16455078 230.12792969 C-432.20966797 229.27714844 -432.25478516 228.42636719 -432.30126953 227.54980469 C-432.40472621 225.19712768 -432.40472621 225.19712768 -433.47705078 222.37792969 C-460.10133914 226.68119837 -480.77923467 236.77087212 -500.47705078 255.37792969 C-501.60240234 256.40660156 -501.60240234 256.40660156 -502.75048828 257.45605469 C-524.77629804 278.3226113 -539.72026458 311.4635648 -540.79315186 341.63015747 C-540.8882745 345.50468955 -540.91562926 349.37732287 -540.91455078 353.25292969 C-540.91561829 354.0688559 -540.91668579 354.8847821 -540.91778564 355.72543335 C-540.89246465 369.15756402 -539.67990469 381.5405273 -535.47705078 394.37792969 C-535.14012207 395.45494141 -535.14012207 395.45494141 -534.79638672 396.55371094 C-528.60275004 415.99109184 -518.11385705 432.64366256 -504.12939453 447.41699219 C-502.47705078 449.37792969 -502.47705078 449.37792969 -502.47705078 451.37792969 C-501.90728516 451.62414062 -501.33751953 451.87035156 -500.75048828 452.12402344 C-498.10200856 453.58478287 -496.27557802 455.33737517 -494.10205078 457.44042969 C-469.51867009 479.86421618 -437.13555383 486.78112362 -404.78564453 486.88964844 C-402.85936883 486.90654256 -400.93310383 486.92469893 -399.0068512 486.94404602 C-393.99788767 486.99103909 -388.98896753 487.02117342 -383.9798584 487.04748535 C-378.84406972 487.0775503 -373.70843 487.12398969 -368.57275391 487.16894531 C-358.54091476 487.25439986 -348.50908942 487.32048042 -338.47705078 487.37792969 C-338.47705078 494.63792969 -338.47705078 501.89792969 -338.47705078 509.37792969 C-348.69272162 509.42347905 -358.90832279 509.46001506 -369.12407303 509.48155403 C-373.86986373 509.49190209 -378.61558015 509.50589275 -383.36132812 509.52880859 C-387.95848041 509.55086287 -392.55556218 509.56256537 -397.15276337 509.56768417 C-398.88904681 509.57132248 -400.62532728 509.5784227 -402.3615799 509.5893898 C-417.92630074 509.68361276 -434.24018327 509.52549528 -449.28955078 505.12792969 C-450.06540527 504.91104492 -450.84125977 504.69416016 -451.640625 504.47070312 C-491.19582291 493.05789618 -523.54044566 466.37270738 -543.66455078 430.6003418 C-563.18443832 395.09315681 -569.51860413 352.61912483 -558.63134766 313.32568359 C-546.67854724 272.84223377 -521.85094852 236.09516483 -484.34765625 215.24194336 C-462.93921561 203.79016762 -462.93921561 203.79016762 -452.47705078 204.37792969 C-452.52925781 203.50007813 -452.52925781 203.50007813 -452.58251953 202.60449219 C-453.71418265 166.7146048 -434.37671338 132.54479668 -410.87548828 106.87792969 C-392.22369125 87.43631715 -369.19069754 74.00413722 -343.35205078 66.62792969 C-342.66062988 66.4290918 -341.96920898 66.23025391 -341.25683594 66.02539062 C-329.74559473 62.90469608 -318.42047628 62.07025594 -306.56201172 62.17211914 C-304.32003703 62.19069494 -302.07847041 62.19262588 -299.83642578 62.19238281 C-288.92174322 62.22969888 -288.92174322 62.22969888 -285.47705078 63.37792969 C-285.30761963 62.82322998 -285.13818848 62.26853027 -284.96362305 61.69702148 C-283.23021107 56.23801561 -281.12157776 51.23328197 -278.41455078 46.19042969 C-278.02460938 45.46065918 -277.63466797 44.73088867 -277.23291016 43.97900391 C-273.23081214 36.66356322 -268.55296481 29.97952795 -263.47705078 23.37792969 C-262.79384766 22.47042969 -262.11064453 21.56292969 -261.40673828 20.62792969 C-232.6873037 -16.06305898 -190.42892354 -38.30825589 -144.66455078 -44.87207031 C-91.61888151 -51.02080763 -39.86516205 -35.50471584 0 0 Z " fill="#FDFDFD" transform="translate(656.47705078125,177.6220703125)"/> -->
    <!--Border-->
    <g fill="#BFBFBF">
      <path d="M0 0 C155.628 0 311.256 0 471.6 0 C471.6 7.26 471.6 14.52 471.6 22 C315.972 22 160.344 22 0 22 C0 14.74 0 7.48 0 0 Z" transform="translate(318,665)"/>
      <path d="M0 0 C23.429772 21.19872286 41.12036312 49.23983913 50.52294922 79.37792969 C50.52294922 80.36792969 50.52294922 81.35792969 50.52294922 82.37792969 C52.00794922 81.88292969 52.00794922 81.88292969 53.52294922 81.37792969 C92.03043053 79.69859734 127.85985312 90.70361234 156.71044922 116.81542969 C180.72519537 139.16028904 196.19283932 169.40861352 198.52294922 202.37792969 C198.52661684 203.86231443 198.51963462 205.34675399 198.50341797 206.83105469 C198.21319693 214.78814253 198.21319693 214.78814253 201.45654297 221.72558594 C204.06097175 223.50927429 206.71530478 224.93881585 209.52294922 226.37792969 C238.21072047 246.46886883 257.18184142 277.98938714 266.89794922 311.12792969 C267.25590576 312.33074585 267.25590576 312.33074585 267.62109375 313.55786133 C271.23693546 326.56626365 271.90418919 339.71911471 271.83544922 353.12792969 C271.832715 354.24178543 271.832715 354.24178543 271.82992554 355.37814331 C271.6647851 395.44271843 257.14098463 433.87748732 229.04931641 462.79589844 C227.57367949 464.32534937 226.1288619 465.87917786 224.68701172 467.44042969 C201.09507972 492.55061403 166.66456369 507.29612393 132.52294922 509.37792969 C132.52294922 502.11792969 132.52294922 494.85792969 132.52294922 487.37792969 C134.06982422 487.17167969 135.61669922 486.96542969 137.21044922 486.75292969 C150.94850829 484.45510486 164.977964 480.44520561 177.52294922 474.37792969 C178.56322266 473.87777344 179.60349609 473.37761719 180.67529297 472.86230469 C189.08546221 468.58221856 196.27141685 463.34533653 203.52294922 457.37792969 C204.34794922 456.70761719 205.17294922 456.03730469 206.02294922 455.34667969 C230.08449725 434.9612015 243.71947866 403.92662017 248.52294922 373.37792969 C248.6949585 372.4368335 248.86696777 371.4957373 249.04418945 370.52612305 C251.47233446 354.55930517 250.11234439 337.08287025 246.52294922 321.37792969 C246.36197754 320.67055664 246.20100586 319.96318359 246.03515625 319.234375 C237.40718107 283.08141847 213.52531707 255.00550402 183.33129883 234.62963867 C182.73454346 234.21657471 182.13778809 233.80351074 181.52294922 233.37792969 C180.7980127 232.94101807 180.07307617 232.50410645 179.32617188 232.05395508 C177.52294922 230.37792969 177.52294922 230.37792969 177.0246582 227.95214844 C177.02280518 226.99953125 177.02095215 226.04691406 177.01904297 225.06542969 C177.00268799 223.99929443 176.98633301 222.93315918 176.96948242 221.8347168 C176.96501099 220.12360718 176.96501099 220.12360718 176.96044922 218.37792969 C176.298395 188.02159498 168.55250034 162.56515348 148.52294922 139.37792969 C147.55615234 138.25644531 147.55615234 138.25644531 146.56982422 137.11230469 C136.28749452 126.11468248 123.15091017 118.44028446 109.52294922 112.37792969 C108.63865234 111.96929687 107.75435547 111.56066406 106.84326172 111.13964844 C86.44907124 102.70179647 63.71442082 102.83934541 42.40185547 106.72167969 C38.52294922 107.37792969 38.52294922 107.37792969 34.52294922 107.37792969 C34.30380859 106.35957031 34.08466797 105.34121094 33.85888672 104.29199219 C27.0511212 73.52839089 13.83017305 46.8158759 -7.47705078 23.37792969 C-8.13705078 23.04792969 -8.79705078 22.71792969 -9.47705078 22.37792969 C-9.47705078 21.71792969 -9.47705078 21.05792969 -9.47705078 20.37792969 C-10.04037109 20.13945312 -10.60369141 19.90097656 -11.18408203 19.65527344 C-13.97317844 18.10155193 -15.88469601 16.17733586 -18.16455078 13.94042969 C-35.11419813 -1.67939161 -56.4845643 -11.45305294 -78.47705078 -17.62207031 C-79.2765918 -17.84942871 -80.07613281 -18.07678711 -80.89990234 -18.31103516 C-107.40553596 -25.42697187 -140.30581806 -24.30708333 -166.47705078 -16.62207031 C-167.36569824 -16.36506348 -168.2543457 -16.10805664 -169.16992188 -15.84326172 C-205.58763015 -4.96403069 -238.2094339 20.58665073 -256.66455078 53.94042969 C-257.61042857 55.74857175 -258.54789231 57.56113938 -259.47705078 59.37792969 C-259.97978516 60.32152344 -260.48251953 61.26511719 -261.00048828 62.23730469 C-264.4629516 68.88101602 -267.10557081 75.55946958 -269.49658203 82.63964844 C-270.47705078 85.37792969 -270.47705078 85.37792969 -271.47705078 86.37792969 C-274.48471648 86.08209372 -277.47736074 85.74139578 -280.47705078 85.37792969 C-315.4856401 81.20361459 -350.89355775 87.08548568 -379.39501953 108.90136719 C-383.93756609 112.55152501 -388.26578592 116.35169403 -392.47705078 120.37792969 C-393.13833984 120.97605469 -393.79962891 121.57417969 -394.48095703 122.19042969 C-414.76124007 141.20063439 -429.46610835 171.85535461 -430.61376953 199.69433594 C-430.60605201 201.79092862 -430.57411039 203.88759387 -430.51611328 205.98339844 C-430.46905171 210.07304869 -430.70231037 214.1116605 -430.97705078 218.19042969 C-431.04883545 219.25970703 -431.04883545 219.25970703 -431.12207031 220.35058594 C-431.23713095 222.02659461 -431.35659474 223.70230014 -431.47705078 225.37792969 C-432.46705078 223.89292969 -432.46705078 223.89292969 -433.47705078 222.37792969 C-460.10133914 226.68119837 -480.77923467 236.77087212 -500.47705078 255.37792969 C-501.60240234 256.40660156 -501.60240234 256.40660156 -502.75048828 257.45605469 C-524.77629804 278.3226113 -539.72026458 311.4635648 -540.79315186 341.63015747 C-540.8882745 345.50468955 -540.91562926 349.37732287 -540.91455078 353.25292969 C-540.91561829 354.0688559 -540.91668579 354.8847821 -540.91778564 355.72543335 C-540.89246465 369.15756402 -539.67990469 381.5405273 -535.47705078 394.37792969 C-535.14012207 395.45494141 -535.14012207 395.45494141 -534.79638672 396.55371094 C-528.60275004 415.99109184 -518.11385705 432.64366256 -504.12939453 447.41699219 C-502.47705078 449.37792969 -502.47705078 449.37792969 -502.47705078 451.37792969 C-501.90728516 451.62414062 -501.33751953 451.87035156 -500.75048828 452.12402344 C-498.10200856 453.58478287 -496.27557802 455.33737517 -494.10205078 457.44042969 C-469.51867009 479.86421618 -437.13555383 486.78112362 -404.78564453 486.88964844 C-402.85936883 486.90654256 -400.93310383 486.92469893 -399.0068512 486.94404602 C-393.99788767 486.99103909 -388.98896753 487.02117342 -383.9798584 487.04748535 C-378.84406972 487.0775503 -373.70843 487.12398969 -368.57275391 487.16894531 C-358.54091476 487.25439986 -348.50908942 487.32048042 -338.47705078 487.37792969 C-338.47705078 494.63792969 -338.47705078 501.89792969 -338.47705078 509.37792969 C-348.69272162 509.42347905 -358.90832279 509.46001506 -369.12407303 509.48155403 C-373.86986373 509.49190209 -378.61558015 509.50589275 -383.36132812 509.52880859 C-387.95848041 509.55086287 -392.55556218 509.56256537 -397.15276337 509.56768417 C-398.88904681 509.57132248 -400.62532728 509.5784227 -402.3615799 509.5893898 C-417.92630074 509.68361276 -434.24018327 509.52549528 -449.28955078 505.12792969 C-450.06540527 504.91104492 -450.84125977 504.69416016 -451.640625 504.47070312 C-491.19582291 493.05789618 -523.54044566 466.37270738 -543.66455078 430.6003418 C-563.18443832 395.09315681 -569.51860413 352.61912483 -558.63134766 313.32568359 C-546.67854724 272.84223377 -521.85094852 236.09516483 -484.34765625 215.24194336 C-462.93921561 203.79016762 -462.93921561 203.79016762 -452.47705078 204.37792969 C-452.52925781 203.50007813 -452.52925781 203.50007813 -452.58251953 202.60449219 C-453.71418265 166.7146048 -434.37671338 132.54479668 -410.87548828 106.87792969 C-392.22369125 87.43631715 -369.19069754 74.00413722 -343.35205078 66.62792969 C-342.66062988 66.4290918 -341.96920898 66.23025391 -341.25683594 66.02539062 C-329.74559473 62.90469608 -318.42047628 62.07025594 -306.56201172 62.17211914 C-304.32003703 62.19069494 -302.07847041 62.19262588 -299.83642578 62.19238281 C-288.92174322 62.22969888 -288.92174322 62.22969888 -285.47705078 63.37792969 C-285.30761963 62.82322998 -285.13818848 62.26853027 -284.96362305 61.69702148 C-283.23021107 56.23801561 -281.12157776 51.23328197 -278.41455078 46.19042969 C-278.02460938 45.46065918 -277.63466797 44.73088867 -277.23291016 43.97900391 C-273.23081214 36.66356322 -268.55296481 29.97952795 -263.47705078 23.37792969 C-262.79384766 22.47042969 -262.11064453 21.56292969 -261.40673828 20.62792969 C-232.6873037 -16.06305898 -190.42892354 -38.30825589 -144.66455078 -44.87207031 C-91.61888151 -51.02080763 -39.86516205 -35.50471584 0 0 Z " transform="translate(656.47705078125,177.6220703125)"/>
    </g>
  </g>
  <!--S-->
  <path d="M0 0 C0.77472656 0.59296875 1.54945313 1.1859375 2.34765625 1.796875 C12.08158933 9.67404628 20.80852534 22.5181226 23 35 C24.0923235 49.70159988 24.0923235 49.70159988 19 56 C12.51954324 62.78904994 5.03381089 64.12213864 -4.0949707 64.39526367 C-4.92988037 64.40920166 -5.76479004 64.42313965 -6.625 64.4375 C-7.42446045 64.45981689 -8.2239209 64.48213379 -9.04760742 64.50512695 C-16.13518042 64.47807236 -21.23409818 62.4983731 -26.50390625 57.73828125 C-27.18324219 56.93777344 -27.86257813 56.13726562 -28.5625 55.3125 C-29.3153125 54.4359375 -30.068125 53.559375 -30.84375 52.65625 C-32.80256916 50.2432119 -34.69247297 47.79453588 -36.5625 45.3125 C-45.1635521 34.18403168 -56.7127905 28.07139807 -70.53125 25.47265625 C-76.68000222 24.69521085 -82.8727183 24.6362989 -89.0625 24.5625 C-90.81929077 24.52890381 -90.81929077 24.52890381 -92.61157227 24.49462891 C-104.70571137 24.52681444 -117.33806163 27.45471184 -126.7421875 35.48828125 C-131.96147514 40.92828503 -135.08648954 48.52340586 -135.4375 56.0625 C-134.40581079 65.34770288 -131.91242764 71.60200063 -125 78 C-118.87550149 82.72050834 -112.36186552 85.83552724 -105.1875 88.625 C-104.12781006 89.04322021 -103.06812012 89.46144043 -101.97631836 89.89233398 C-87.93240709 95.32775358 -73.58334166 99.90619009 -59.27832031 104.59667969 C-25.49641813 115.67454194 6.4408401 126.53965463 23.5703125 160.07421875 C28.63655731 171.43534857 30.25217797 182.37290609 30.3125 194.6875 C30.31805908 195.63729736 30.32361816 196.58709473 30.3293457 197.56567383 C30.09388696 220.81974053 21.03318551 241.4481601 5 258 C-10.7988525 272.96199515 -34.17604453 283 -56 283 C-56 312.04 -56 341.08 -56 371 C-42.14 371 -28.28 371 -14 371 C-4.83018868 375.58490566 -4.83018868 375.58490566 -2 380 C-0.39250062 384.82249813 0.02998286 389.35147264 -1.84765625 394.1796875 C-6.09118167 401.68047556 -11.83503284 408.34817953 -17.16015625 415.09765625 C-20.97645556 419.9453354 -24.68624212 424.86739429 -28.375 429.8125 C-34.90539493 438.55517372 -41.49563774 447.25011832 -48.125 455.91796875 C-50.66465224 459.24017352 -53.18460597 462.57580561 -55.6875 465.92578125 C-56.26870605 466.69897705 -56.84991211 467.47217285 -57.44873047 468.26879883 C-58.526361 469.70318062 -59.59875719 471.14151802 -60.66455078 472.5847168 C-64.33822821 477.45505769 -68.04317274 482.01439091 -74 484 C-79.25116489 484.6177841 -82.58559216 483.84403241 -86.8515625 480.91015625 C-91.08126978 477.14956196 -94.26691929 472.5023682 -97.57568359 467.94335938 C-100.15922093 464.418341 -102.8372663 460.96532385 -105.5 457.5 C-106.61491597 456.04192095 -107.72950336 454.5835906 -108.84375 453.125 C-112.35963318 448.52730661 -115.89015492 443.94100853 -119.421875 439.35546875 C-121.29184143 436.92465826 -123.15521045 434.48890965 -125.015625 432.05078125 C-125.54349609 431.35911865 -126.07136719 430.66745605 -126.61523438 429.95483398 C-127.70539212 428.52619984 -128.79523575 427.09732593 -129.88476562 425.66821289 C-132.82075736 421.824427 -135.77752525 417.99876731 -138.765625 414.1953125 C-139.70100098 413.00264771 -139.70100098 413.00264771 -140.65527344 411.78588867 C-141.84782357 410.26773889 -143.04357357 408.75209484 -144.24316406 407.23950195 C-154.86931279 393.70410963 -154.86931279 393.70410963 -154.42578125 384.5546875 C-153.47609114 378.85654682 -150.46293261 376.34719946 -146 373 C-130.89974246 370.25449863 -115.34781924 371 -100 371 C-100 341.96 -100 312.92 -100 283 C-104.29 282.67 -108.58 282.34 -113 282 C-136.11588489 278.23941946 -158.55441766 268.71185987 -176 253 C-176.76828125 252.31421875 -177.5365625 251.6284375 -178.328125 250.921875 C-190.97613639 238.98144467 -202.5069657 222.21024082 -203.4375 204.375 C-203.12012918 197.2658936 -200.30972401 191.85985957 -195.125 187.0625 C-189.20876262 181.99657204 -183.0744634 181.67972204 -175.625 181.75 C-174.81289062 181.74226562 -174.00078125 181.73453125 -173.1640625 181.7265625 C-165.56580464 181.75091589 -158.54506929 182.50762297 -152.77734375 187.84375 C-150.05051662 191.15190072 -148.09538745 194.8645037 -146.04418945 198.60888672 C-136.65793661 215.63928951 -122.67594696 224.4340427 -104.1875 229.8125 C-85.61287274 234.81219575 -61.95715764 234.03712265 -44.75 225.0625 C-43.14506326 224.07597925 -41.55804559 223.05902743 -40 222 C-39.39929688 221.61070312 -38.79859375 221.22140625 -38.1796875 220.8203125 C-32.92891317 216.99437141 -29.09508226 210.40115092 -28 204 C-27.8543014 201.36061388 -27.76937319 198.7645972 -27.75 196.125 C-27.729375 195.43019531 -27.70875 194.73539063 -27.6875 194.01953125 C-27.63743353 187.37320735 -29.94928648 182.50685397 -34.33203125 177.55859375 C-47.54489742 165.21214503 -67.83608175 159.7659772 -84.64700317 154.44345093 C-87.69631682 153.47740632 -90.74101397 152.49785839 -93.78491211 151.51489258 C-100.88906714 149.22327414 -107.99714698 146.94406265 -115.11669922 144.70068359 C-133.41510099 138.9305001 -152.14558197 132.5767406 -167 120 C-167.8559375 119.30390625 -168.711875 118.6078125 -169.59375 117.890625 C-178.98218215 109.91611335 -185.70712229 100.54952152 -190 89 C-190.58974609 87.47632813 -190.58974609 87.47632813 -191.19140625 85.921875 C-198.29598835 64.23680908 -195.19583821 38.98754248 -185.01660156 18.86474609 C-173.21301695 -2.78649772 -151.46056689 -17.16425531 -128.30151367 -24.16040039 C-85.26444466 -36.3543127 -35.18785227 -28.07389028 0 0 Z " fill="#4392E1" transform="translate(419,340)"/>
  <!--Disket-->
  <g>
    <!--Gray color-->
    <path d="M0 0 C0.99702094 -0.00467997 1.99404188 -0.00935994 3.02127558 -0.01418173 C6.34208533 -0.02609024 9.66247924 -0.01669053 12.98329163 -0.00723267 C15.37230672 -0.01130022 17.76131993 -0.01664313 20.15032959 -0.02316284 C25.95379502 -0.0354041 31.75712966 -0.03363742 37.56059902 -0.02492492 C42.27998793 -0.0181348 46.99934425 -0.01723738 51.71873665 -0.02049637 C52.39181815 -0.02095607 53.06489966 -0.02141577 53.75837757 -0.0218894 C55.12597446 -0.02284863 56.49357134 -0.02382127 57.86116821 -0.02480717 C70.66992832 -0.03335136 83.47862391 -0.02354255 96.28737343 -0.00740607 C107.26286806 0.00599318 118.23826747 0.0036704 129.21376038 -0.01016235 C141.97683085 -0.02624064 154.73984483 -0.03252427 167.50292403 -0.02332556 C168.86564321 -0.02236998 170.22836241 -0.02142686 171.59108162 -0.02049637 C172.26146251 -0.02003354 172.93184341 -0.01957072 173.62253888 -0.01909386 C178.332306 -0.01651048 183.04203709 -0.02086092 187.75179863 -0.02793503 C194.09907477 -0.03661787 200.44617159 -0.03055844 206.79342842 -0.01325226 C209.11937793 -0.00929432 211.44534259 -0.01040954 213.77128601 -0.01704025 C216.95327609 -0.02527317 220.13469633 -0.01491262 223.31665039 0 C224.23077428 -0.00669217 225.14489818 -0.01338433 226.08672279 -0.02027929 C238.25064488 0.08982177 247.455481 4.45535276 256.40931702 12.50595093 C263.80995242 20.19985161 266.87120581 29.86480799 266.86898804 40.24752808 C266.87266473 41.16521296 266.87634141 42.08289784 266.88012952 43.02839136 C266.89118013 46.11661994 266.89501258 49.20481489 266.89881897 52.2930603 C266.90508271 54.50222887 266.91172943 56.71139639 266.91873169 58.92056274 C266.93615269 64.93332495 266.94669705 70.9460792 266.95493722 76.9588604 C266.9600864 80.71603916 266.96616225 84.47321544 266.97244835 88.23039246 C266.9893213 98.63946963 267.00395462 109.04854523 267.01119709 119.45763397 C267.0131069 122.15863547 267.01502724 124.85963696 267.01698303 127.56063843 C267.01746677 128.23193545 267.01795051 128.90323247 267.01844891 129.59487182 C267.02674047 140.45753372 267.05206157 151.32008518 267.08456371 162.18269891 C267.11768607 173.3439751 267.13531827 184.50521144 267.13884133 195.66654062 C267.14119039 201.9295466 267.15013208 208.19237816 267.17530251 214.45533752 C267.19861674 220.35195002 267.20280277 226.24827368 267.19254112 232.14492035 C267.19204643 234.30436413 267.19834714 236.46382229 267.21209717 238.62322235 C267.30209477 253.60025548 266.84194014 266.10699211 255.72181702 277.38095093 C246.99820521 284.7911565 237.32013518 286.84065231 226.10232544 286.76863098 C224.56981877 286.77670929 224.56981877 286.77670929 223.00635237 286.78495079 C219.60807804 286.79917408 216.21019634 286.79214046 212.81190491 286.78500366 C210.36525155 286.79071013 207.91860086 286.79767547 205.47195435 286.80580139 C199.5312754 286.82185856 193.59069424 286.8238398 187.65000517 286.81858849 C182.81861477 286.81453651 177.98725555 286.8160025 173.15586662 286.82133675 C172.46655716 286.82208517 171.77724771 286.82283359 171.06705008 286.82360469 C169.66643846 286.82513627 168.26582684 286.82667462 166.86521523 286.82821966 C153.75025975 286.84192661 140.63536403 286.83651959 127.52040993 286.82503445 C115.53947743 286.81510253 103.55869937 286.82804518 91.57779068 286.85196864 C79.25461971 286.87638883 66.93152058 286.88596044 54.6083259 286.87931591 C47.69823014 286.87583035 40.78825312 286.87801185 33.87817574 286.89556694 C27.37985099 286.91187226 20.88174816 286.90706193 14.38342857 286.8882618 C12.00306885 286.88458058 9.62268723 286.88767067 7.24234772 286.89814758 C3.98399206 286.91139058 0.72660691 286.89977977 -2.53170776 286.88215637 C-3.46558238 286.89176138 -4.39945701 286.90136639 -5.36163086 286.91126245 C-16.16464229 286.79167541 -25.57393887 283.01010494 -33.27818298 275.38095093 C-39.94665901 267.26788162 -42.73862945 259.20669036 -42.66586304 248.83044434 C-42.67124857 247.89961466 -42.67663411 246.96878498 -42.68218285 246.00974834 C-42.69643063 242.90694626 -42.68936647 239.80457272 -42.68223572 236.70175171 C-42.68794096 234.47051654 -42.69490582 232.2392843 -42.70303345 230.00805664 C-42.72096345 223.95842294 -42.71979664 217.9089343 -42.71409106 211.85928202 C-42.7109988 206.80465492 -42.71709214 201.75005567 -42.72312981 196.69543254 C-42.73797557 184.08694287 -42.73436202 171.47854045 -42.7222665 158.87005733 C-42.71233713 147.93589368 -42.72527181 137.00189933 -42.74920069 126.06776179 C-42.77362098 114.82382233 -42.78279307 103.57995957 -42.77654797 92.33598697 C-42.77317992 86.03007144 -42.77558352 79.72429574 -42.792799 73.41839981 C-42.80828495 67.48722467 -42.80429388 61.55637227 -42.78549385 55.62520981 C-42.7818125 53.45245169 -42.78490313 51.27966957 -42.79537964 49.10693359 C-42.8086222 46.13272791 -42.7970127 43.15958557 -42.77938843 40.1854248 C-42.78899343 39.33287397 -42.79859844 38.48032313 -42.80849451 37.60193741 C-42.67725098 26.78087078 -37.85151274 17.92895183 -30.27818298 10.38095093 C-20.89663833 3.01962091 -11.8212823 -0.08633118 0 0 Z " fill="#5F6268" transform="translate(538.2781829833984,348.6190490722656)"/>
    <!--White top color-->
    <path d="M0 0 C55.44 0 110.88 0 168 0 C168.0825 15.05625 168.165 30.1125 168.25 45.625 C168.28641602 50.37342285 168.32283203 55.1218457 168.36035156 60.01416016 C168.37841797 65.8269043 168.37841797 65.8269043 168.3817749 68.5508728 C168.38790439 70.44731401 168.40194627 72.34373993 168.42230225 74.24008179 C168.45164372 77.1181737 168.45562209 79.99531576 168.45410156 82.87353516 C168.468494 83.71383585 168.48288643 84.55413654 168.497715 85.41990089 C168.44957135 92.24168652 166.09167526 95.75527533 161.4375 100.75 C154.24910207 106.35913668 142.76227383 105.28930897 134.14404297 105.25878906 C132.90843628 105.2622937 131.67282959 105.26579834 130.39978027 105.26940918 C127.0444743 105.27665094 123.68941836 105.27502802 120.33412695 105.26865101 C116.80430133 105.26354509 113.27448552 105.2682949 109.74465942 105.27142334 C103.82210397 105.27504876 97.89959861 105.27030046 91.97705078 105.26074219 C85.14972008 105.2498503 78.3225088 105.25339427 71.49518096 105.264395 C65.60865732 105.2734966 59.72216944 105.27473945 53.83564103 105.26951766 C50.33055104 105.266415 46.82551704 105.26594156 43.32043076 105.27259064 C39.41262993 105.27948774 35.50496095 105.26990454 31.59716797 105.25878906 C30.44991241 105.26283752 29.30265686 105.26688599 28.12063599 105.27105713 C19.25235263 105.2244669 11.05544181 104.90688151 4 99 C-0.25659333 93.89809859 -0.56162796 90.12964687 -0.45410156 83.78173828 C-0.4545837 82.8591818 -0.45506584 81.93662533 -0.45556259 80.98611259 C-0.45258821 78.0137803 -0.42218057 75.04246418 -0.390625 72.0703125 C-0.38474037 70.22974124 -0.38066181 68.38916329 -0.37841797 66.54858398 C-0.35748692 59.74062026 -0.30164176 52.93280004 -0.25 46.125 C-0.1675 30.90375 -0.085 15.6825 0 0 Z " fill="#FEFEFE" transform="translate(566,370)"/>
    <!--Blue color-->
    <path d="M0 0 C1.62578979 0.00845947 1.62578979 0.00845947 3.28442383 0.01708984 C4.11224365 0.02434082 4.94006348 0.0315918 5.79296875 0.0390625 C5.79661438 1.15024948 5.80026001 2.26143646 5.80401611 3.40629578 C5.84110235 13.92446179 5.89902283 24.44233872 5.97687149 34.96028423 C6.01622892 40.36651944 6.04847472 45.77259462 6.06396484 51.17895508 C6.07920899 56.40521441 6.11379101 61.63103344 6.16127777 66.85709572 C6.17601196 68.84193894 6.18400515 70.82684505 6.1848526 72.81174278 C6.19710816 87.13509038 6.34471675 101.00629291 16.79296875 112.0390625 C17.35628906 112.65394531 17.91960938 113.26882813 18.5 113.90234375 C26.66607473 121.93088459 37.15636959 124.58788185 48.34098816 124.70559692 C49.6109816 124.69390472 50.88097504 124.68221252 52.18945312 124.67016602 C53.57913623 124.67531992 54.96881276 124.68261219 56.35847473 124.69184875 C60.09218167 124.71018449 63.82516406 124.69753901 67.5588398 124.67775846 C71.49117826 124.66122133 75.4234762 124.67020558 79.35583496 124.67527771 C85.95592655 124.67978202 92.5557332 124.66403274 99.15576172 124.63598633 C106.75456739 124.60394187 114.35285953 124.60395559 121.95170164 124.6212011 C129.30244516 124.63713981 136.65300286 124.63028569 144.0037384 124.61326408 C147.11347996 124.60644388 150.22307029 124.60737366 153.33280945 124.61480904 C157.00375589 124.62254764 160.67412756 124.6101033 164.34497643 124.58296013 C166.311611 124.57294211 168.27831521 124.58217958 170.24494934 124.59228516 C183.30409025 124.45407554 194.64789635 121.28948164 204.5 112.51953125 C213.24786537 103.41732196 214.91122338 91.23369694 214.99829102 79.16625977 C215.00819061 78.30692337 215.01809021 77.44758698 215.02828979 76.56221008 C215.05968524 73.7433236 215.08457471 70.92442031 215.109375 68.10546875 C215.12996352 66.1424874 215.15096048 64.17951029 215.17234802 62.21653748 C215.2273727 57.06604463 215.27686794 51.91551308 215.32519531 46.76495361 C215.37555402 41.50277284 215.43116487 36.24064783 215.48632812 30.97851562 C215.5936697 20.66541229 215.69516735 10.35226041 215.79296875 0.0390625 C218.02975612 -0.00669767 220.26681481 -0.03932039 222.50390625 -0.06640625 C224.37248291 -0.09577271 224.37248291 -0.09577271 226.27880859 -0.12573242 C232.27443406 0.15542967 235.93283822 2.17893197 240.10546875 6.3515625 C244.12015019 12.74531442 245.23572678 17.63770274 245.18737793 25.06517029 C245.19346903 25.9516376 245.19956014 26.83810491 245.20583582 27.75143486 C245.22243177 30.70999129 245.21769486 33.66811573 245.21289062 36.62670898 C245.22023286 38.75266974 245.22881954 40.8786265 245.23855591 43.00457764 C245.26076275 48.77108063 245.26370304 54.5374407 245.2618084 60.30398059 C245.26168867 65.1201568 245.27025351 69.93630276 245.27858591 74.75247055 C245.29781653 86.11503022 245.30070482 97.47751641 245.29394531 108.84008789 C245.28730255 120.55824097 245.31017935 132.27607943 245.34725904 143.9941687 C245.3779529 154.05976279 245.38931646 164.12525566 245.38542223 174.19089562 C245.38335465 180.20058137 245.38883592 186.21002222 245.41331482 192.21966362 C245.4355743 197.87099275 245.43371031 203.52181003 245.4133873 209.17314148 C245.40997603 211.24515238 245.4150713 213.3171977 245.42937088 215.38916206 C245.44757033 218.22202743 245.4348091 221.05315758 245.41442871 223.88597107 C245.42694656 224.70222928 245.43946441 225.51848749 245.45236158 226.3594808 C245.36087048 232.30765294 243.63479556 236.4688758 239.79296875 241.0390625 C233.2079684 246.37630263 225.37094532 245.50250497 217.29296875 245.2890625 C215.99359375 245.27101563 214.69421875 245.25296875 213.35546875 245.234375 C210.16719724 245.18748865 206.98047575 245.12187143 203.79296875 245.0390625 C203.78710251 244.13197037 203.78123627 243.22487823 203.77519226 242.29029846 C203.71712546 233.71341892 203.64496906 225.13679593 203.55725384 216.56016636 C203.51265553 212.15153925 203.47337661 207.74300231 203.4465332 203.33422852 C203.4203945 199.07410568 203.3799186 194.8143318 203.32978249 190.55442619 C203.31318487 188.93470561 203.30162657 187.31492478 203.29535484 185.6951313 C203.24391996 173.62483429 202.76373551 163.00982926 193.66796875 153.9140625 C184.93177657 148.21654586 176.8648843 147.45728126 166.59765625 147.52148438 C165.19369789 147.5160529 163.78974525 147.50892453 162.38580322 147.50024414 C158.6005764 147.48212929 154.81578947 147.48902872 151.03055573 147.50176048 C147.05274853 147.51195006 143.07497678 147.50247838 139.09716797 147.49621582 C132.4195282 147.48895664 125.7420659 147.49848147 119.06445312 147.51757812 C111.36512211 147.53934364 103.66621491 147.53229104 95.96689415 147.5102725 C89.33385806 147.49206897 82.70094891 147.48958428 76.06789589 147.50002718 C72.11613655 147.50623501 68.16457584 147.50717306 64.21282959 147.49388123 C60.49599303 147.48225078 56.77969819 147.49047791 53.06291962 147.51345825 C51.06345852 147.52119354 49.06395113 147.50945114 47.06451416 147.49694824 C37.13367516 147.58944953 28.70173704 149.40088213 21.26171875 156.33203125 C15.65105985 162.85293002 14.68734919 170.03887421 14.58764648 178.3996582 C14.57774689 179.12215256 14.56784729 179.84464691 14.55764771 180.58903503 C14.5261967 182.96427189 14.50134055 185.33952871 14.4765625 187.71484375 C14.45597879 189.36680098 14.43498195 191.01875312 14.41358948 192.67070007 C14.35851513 197.00908263 14.30904158 201.34751156 14.26074219 205.68597412 C14.21042 210.11686305 14.15478998 214.54768501 14.09960938 218.97851562 C13.99220694 227.66530788 13.89072253 236.35215633 13.79296875 245.0390625 C8.98748278 245.08843133 4.18214381 245.12476693 -0.62353516 245.14892578 C-2.25897797 245.15899504 -3.89440274 245.17265131 -5.52978516 245.18994141 C-7.87797495 245.21414955 -10.22592713 245.22553607 -12.57421875 245.234375 C-13.67429764 245.24985886 -13.67429764 245.24985886 -14.79660034 245.26565552 C-16.60165822 245.26605618 -18.40610955 245.16119005 -20.20703125 245.0390625 C-22.85484606 242.39124769 -22.45271158 240.44897228 -22.47918016 236.84606439 C-22.47540083 235.9695287 -22.47162151 235.09299301 -22.46772766 234.18989563 C-22.47155321 233.2620758 -22.47537876 232.33425598 -22.47932023 231.3783204 C-22.48969017 228.24995972 -22.48565048 225.12178123 -22.48168945 221.9934082 C-22.48603384 219.75819223 -22.49121606 217.52297775 -22.49717712 215.2877655 C-22.51061084 209.20081451 -22.51114073 203.11392545 -22.50861382 197.02696252 C-22.50754662 191.94999125 -22.51242127 186.87303264 -22.51721925 181.79606408 C-22.52896661 169.13181127 -22.52808084 156.46759647 -22.52166244 143.80334421 C-22.51649791 132.80860339 -22.52773445 121.8139513 -22.54676066 110.81922803 C-22.56614419 99.53143033 -22.57410251 88.24367344 -22.5706374 76.95585507 C-22.56882293 70.61810952 -22.57147671 64.28044513 -22.58535194 57.94271278 C-22.597917 51.979668 -22.59599854 46.01680065 -22.58294106 40.05375862 C-22.58057249 37.86523123 -22.58331994 35.6766914 -22.59156418 33.48817825 C-22.6020099 30.4996283 -22.59394798 27.51167601 -22.58125305 24.52314758 C-22.58862734 23.6577655 -22.59600162 22.79238342 -22.60359937 21.90077764 C-22.54930266 15.82116381 -21.62167171 10.92142993 -17.59375 6.11328125 C-11.80688395 1.39066643 -7.53539782 -0.05081185 0 0 Z " fill="#469DE7" transform="translate(539.20703125,369.9609375)"/>
    <!--Yellow bottom color-->
    <path d="M0 0 C1.20156738 -0.00990463 2.40313477 -0.01980927 3.64111328 -0.03001404 C4.9745341 -0.0257758 6.30795393 -0.02121792 7.64137268 -0.01637268 C9.04417974 -0.02207427 10.44698215 -0.02903771 11.84977722 -0.03717041 C15.66179672 -0.05514103 19.47358654 -0.05392613 23.28563571 -0.04822803 C26.4666463 -0.04514163 29.64761241 -0.05122252 32.82861668 -0.05726677 C40.33248299 -0.07132334 47.83623549 -0.06974148 55.34010315 -0.05836487 C63.08426839 -0.04688346 70.82808732 -0.06095692 78.57220691 -0.08776134 C85.21858425 -0.10990579 91.86485277 -0.11655855 98.51126438 -0.11068493 C102.48195342 -0.10731099 106.45242048 -0.10975912 110.42307854 -0.12693596 C114.15701802 -0.14238313 117.89044392 -0.13847497 121.62436295 -0.11963081 C123.64891604 -0.11417698 125.67349207 -0.12847607 127.69799805 -0.14332581 C128.90238525 -0.13349167 130.10677246 -0.12365753 131.34765625 -0.11352539 C132.3946038 -0.11331611 133.44155134 -0.11310682 134.52022457 -0.1128912 C137.97252171 0.52312648 139.12688686 1.62423848 141.23731995 4.38768005 C147.22041159 28.32004663 142.23731995 53.71876124 142.23731995 78.38768005 C92.40731995 78.38768005 42.57731995 78.38768005 -8.76268005 78.38768005 C-8.76268005 53.63768005 -8.76268005 28.88768005 -8.76268005 3.38768005 C-5.26647352 -0.10852648 -4.7113238 0.01093861 0 0 Z " fill="#FCDE47" transform="translate(581.7626800537109,536.6123199462891)"/>
    <!--bottom dot-->
    <path d="M0 0 C0.80103149 0.00202423 1.60206299 0.00404846 2.42736816 0.00613403 C3.24483521 0.00517731 4.06230225 0.00422058 4.90454102 0.00323486 C6.63627194 0.00255308 8.3680054 0.00440724 10.09973145 0.00857544 C12.75978298 0.01392374 15.41966566 0.00863041 18.07971191 0.00222778 C19.75809771 0.00288857 21.43648339 0.00416973 23.11486816 0.00613403 C23.91589966 0.0041098 24.71693115 0.00208557 25.54223633 0 C31.15616738 0.02399575 31.15616738 0.02399575 32.27111816 1.13894653 C32.36966239 2.72957963 32.3991051 4.32456131 32.4005127 5.91824341 C32.40366486 6.93599854 32.40681702 7.95375366 32.4100647 9.00234985 C32.40804047 10.10961426 32.40601624 11.21687866 32.40393066 12.35769653 C32.40488739 13.4859082 32.40584412 14.61411987 32.40682983 15.77651978 C32.40751184 18.16734879 32.40565613 20.55817964 32.40148926 22.94900513 C32.39614132 26.62303804 32.40143359 30.2969487 32.40783691 33.97097778 C32.40717614 36.2873843 32.40589498 38.60379075 32.40393066 40.92019653 C32.4059549 42.02746094 32.40797913 43.13472534 32.4100647 44.27554321 C32.40533646 45.8021759 32.40533646 45.8021759 32.4005127 47.35964966 C32.3997171 48.26042236 32.39892151 49.16119507 32.39810181 50.08926392 C32.27111816 52.13894653 32.27111816 52.13894653 31.27111816 53.13894653 C28.54387538 53.23994141 25.84249293 53.27865182 23.11486816 53.27175903 C21.8886676 53.27319412 21.8886676 53.27319412 20.63769531 53.2746582 C18.90596439 53.27533999 17.17423092 53.27348583 15.44250488 53.26931763 C12.78245334 53.26396932 10.12257066 53.26926265 7.46252441 53.27566528 C5.78413862 53.2750045 4.10575294 53.27372334 2.42736816 53.27175903 C1.62633667 53.27378326 0.82530518 53.2758075 0 53.27789307 C-5.61393105 53.25389732 -5.61393105 53.25389732 -6.72888184 52.13894653 C-6.82742606 50.54831343 -6.85686877 48.95333176 -6.85827637 47.35964966 C-6.86142853 46.34189453 -6.86458069 45.3241394 -6.86782837 44.27554321 C-6.86580414 43.16827881 -6.86377991 42.0610144 -6.86169434 40.92019653 C-6.86265106 39.79198486 -6.86360779 38.66377319 -6.86459351 37.50137329 C-6.86527551 35.11054428 -6.86341981 32.71971342 -6.85925293 30.32888794 C-6.85390499 26.65485502 -6.85919726 22.98094437 -6.86560059 19.30691528 C-6.86493981 16.99050876 -6.86365865 14.67410232 -6.86169434 12.35769653 C-6.86473068 10.69679993 -6.86473068 10.69679993 -6.86782837 9.00234985 C-6.86467621 7.98459473 -6.86152405 6.9668396 -6.85827637 5.91824341 C-6.85748077 5.0174707 -6.85668518 4.116698 -6.85586548 3.18862915 C-6.58960125 -1.10922485 -3.61887601 0.01546824 0 0 Z " fill="#5C616D" transform="translate(594.7288818359375,550.8610534667969)"/>
    <!--Card-->
    <g>
      <path d="M0 0 C0.33 0 0.66 0 1 0 C1.00054477 1.13822079 1.00108953 2.27644157 1.00165081 3.4491539 C1.01605787 31.16785923 1.05912286 58.88640774 1.13209057 86.60502243 C1.13898903 89.27558122 1.145847 91.94614004 1.15258789 94.61669922 C1.15426695 95.28045859 1.15594602 95.94421796 1.15767596 96.62809125 C1.18265015 106.69168411 1.19307005 116.75522605 1.19555664 126.81884766 C1.19859981 138.50484592 1.219138 150.19066138 1.26052457 161.87658906 C1.28182389 168.06198313 1.29447075 174.24711749 1.28615379 180.43254852 C1.27859453 186.26030152 1.29451349 192.08752911 1.32806015 197.91518593 C1.3362707 200.04838068 1.33607035 202.18162791 1.32659721 204.31481743 C1.27307547 217.69715872 1.39252508 230.13107025 11.203125 240.47265625 C20.13764219 248.06699586 28.84451514 250.3063466 40.26545715 250.26069641 C41.79517726 250.26643473 41.79517726 250.26643473 43.35580081 250.27228898 C46.76565499 250.28258988 50.17533987 250.27863229 53.58520508 250.2746582 C56.03303686 250.27900631 58.48086728 250.28418979 60.92869568 250.29014587 C66.88347816 250.30214683 72.83819436 250.30468841 78.79298285 250.30234561 C83.63541273 250.30056038 88.47782894 250.30231649 93.32025719 250.30657005 C94.01026184 250.30716524 94.70026649 250.30776043 95.41118037 250.30837366 C96.81308232 250.30958545 98.21498427 250.31079958 99.61688622 250.31201603 C112.75658428 250.32288603 125.89625666 250.32073181 139.03595617 250.31463119 C151.04359406 250.30946411 163.05115077 250.32071288 175.0587726 250.33972941 C187.40104561 250.35912537 199.74328026 250.36736062 212.08556861 250.36360615 C219.00963143 250.36169657 225.9336252 250.36415782 232.85767555 250.37832069 C239.37069778 250.39150841 245.8835847 250.38895057 252.39661598 250.37590981 C254.78384455 250.37354536 257.17108456 250.37627395 259.55830002 250.38453293 C262.82358483 250.39501304 266.08832633 250.38688903 269.35359192 250.3742218 C270.29242574 250.38159609 271.23125956 250.38897037 272.19854289 250.39656812 C278.60271518 250.34450389 283.95523613 249.03175575 290 247 C291.32990444 246.65323917 292.66227718 246.31525633 294 246 C294.07018694 266.67140641 294.12303556 287.34279308 294.15543652 308.01429462 C294.17088299 317.61316736 294.19192995 327.21196591 294.22631836 336.81079102 C294.25628881 345.18044578 294.27559113 353.55004679 294.28226548 361.91975373 C294.28616482 366.34844411 294.29528223 370.77698077 294.31719017 375.20562172 C294.33767631 379.38099946 294.3438095 383.55616132 294.33932304 387.73158455 C294.34014285 389.25729295 294.34603591 390.78300919 294.35761642 392.30867386 C294.45863405 406.31376642 292.65727132 418.49192075 282.99609375 429.2265625 C276.020402 435.89028235 266.82215896 441.10859455 256.96215725 441.13422108 C255.76384011 441.14090784 255.76384011 441.14090784 254.54131454 441.14772969 C253.23350583 441.14745315 253.23350583 441.14745315 251.89927673 441.14717102 C250.96848677 441.15084771 250.0376968 441.1545244 249.07870108 441.1583125 C245.95212003 441.16934698 242.82557222 441.17319281 239.69897461 441.17700195 C237.46010228 441.18326684 235.22123099 441.18991367 232.98236084 441.19691467 C225.62236251 441.2179566 218.26236397 441.22831804 210.90234375 441.23828125 C208.36794079 441.24232893 205.83353794 441.24644585 203.29913521 441.25063133 C192.75533685 441.26750098 182.21154065 441.28213496 171.66773129 441.28938007 C168.93286576 441.29128984 166.19800025 441.29321019 163.46313477 441.29516602 C162.7834314 441.29564976 162.10372804 441.2961335 161.40342761 441.2966319 C150.40179967 441.30492562 139.40028069 441.33025185 128.39870029 441.36274669 C117.09274702 441.39586707 105.78684696 441.41350098 94.48083884 441.41702431 C88.13736512 441.41937334 81.79406361 441.42831472 75.45063591 441.45348549 C69.47932062 441.47679654 63.50829056 441.48098703 57.53694153 441.47072411 C55.35008355 441.47022936 53.16321138 441.47653166 50.97639656 441.49028015 C34.22371097 441.58967654 22.9733028 440.14843038 10.28515625 428.4140625 C3.07686389 420.89396105 -0.1261836 410.34908071 -0.12304783 400.15153885 C-0.12420167 399.45975538 -0.12535552 398.76797192 -0.12654433 398.05522531 C-0.12920131 395.72602222 -0.12469636 393.39688758 -0.12025452 391.06768799 C-0.12069041 389.38544185 -0.12156564 387.70319578 -0.12284368 386.02095008 C-0.12508516 381.3895383 -0.12107207 376.75814954 -0.11606562 372.12674069 C-0.11175636 367.13562599 -0.11320789 362.14451264 -0.1139679 357.15339661 C-0.11449283 348.50304099 -0.11134923 339.8526929 -0.10573006 331.20233917 C-0.09761091 318.69530316 -0.09499941 306.18827079 -0.09374207 293.68123242 C-0.0915522 273.39051356 -0.08489388 253.09979871 -0.07543945 232.80908203 C-0.06626365 213.09586609 -0.05918364 193.38265124 -0.05493164 173.66943359 C-0.05466892 172.45477729 -0.05440619 171.24012098 -0.05413551 169.98865691 C-0.05283049 163.89522245 -0.05156678 157.80178799 -0.05032361 151.70835352 C-0.03995303 101.13889957 -0.02233649 50.56944998 0 0 Z " fill="#FDDE47" transform="translate(495,384)"/>
      <!--Strokes-->
      <g>
        <path d="M0 0 C14.39661599 6.87575378 29.19636285 11.06149515 45.0625 6.5625 C47.71348243 5.61086528 49.99650629 4.51287902 52.5 3.1875 C56.05359914 1.52915374 58.43430565 1.3722711 62.3125 1.875 C64.75 3.375 64.75 3.375 66.3125 5.875 C66.8296647 9.13313759 67.07323115 10.80753569 66.3125 13.875 C60.08398973 21.75223358 47.032767 24.34905504 37.4921875 25.65234375 C20.05027056 26.87370648 5.72918443 21.75953864 -9.73022461 14.19140625 C-24.85147882 6.81775823 -41.24532331 1.30583201 -58 6.4375 C-65.80878393 9.43598827 -72.48435304 14.06311315 -78.9375 19.3125 C-81.70179933 21.41540256 -82.79893562 21.89577613 -86.375 22.5625 C-90.64338388 21.67660901 -92.1580729 20.40086808 -94.6875 16.875 C-95.17619678 13.23909593 -95.20829626 11.55920637 -92.95703125 8.6015625 C-63.4049695 -16.67508173 -33.72912507 -16.32054439 0 0 Z " fill="#FEFEFB" transform="translate(628.6875,671.125)"/> -->
        <path d="M0 0 C18.36933318 8.29907949 36.93008417 12.25333025 56.53076172 4.90307617 C59.72380823 3.61158609 62.87138459 2.25917067 66.01123047 0.84106445 C70.26704656 -0.59771801 73.11801065 -0.69485865 77.58154297 -0.3659668 C80.08154297 1.1965332 80.08154297 1.1965332 81.58154297 3.6340332 C82.08154297 7.1340332 82.08154297 7.1340332 81.58154297 10.6340332 C75.14470717 19.19945226 58.38640503 23.44008589 48.36279297 25.23168945 C23.24615097 27.90422471 3.60220753 20.81249075 -18.99023438 10.43774414 C-33.54413037 3.82686694 -47.74542772 1.09281354 -63.25048828 6.37231445 C-70.28846102 9.17535415 -76.35885587 12.65134304 -82.16845703 17.5090332 C-85.12999956 19.88884417 -86.32250522 20.61484284 -90.16845703 21.3840332 C-94.39642781 20.40834764 -95.97788197 19.21862782 -98.41845703 15.6340332 C-98.79345703 12.3215332 -98.79345703 12.3215332 -97.41845703 8.6340332 C-70.53889103 -22.62270983 -32.4951485 -14.71691154 0 0 Z " fill="#FEFEFB" transform="translate(632.41845703125,718.365966796875)"/>
        <path d="M0 0 C20.53300618 9.02403584 39.21105362 13.93377244 61.171875 6.25390625 C62.74388672 5.45726562 62.74388672 5.45726562 64.34765625 4.64453125 C68.41816122 2.64024388 70.67591734 2.74629813 75.171875 3.25390625 C77.671875 4.81640625 77.671875 4.81640625 79.171875 7.25390625 C79.671875 10.75390625 79.671875 10.75390625 79.171875 14.25390625 C72.31526356 22.76725873 57.48129066 25.9705765 47.171875 27.25390625 C27.94047851 28.72650179 11.3199328 23.54055315 -6.125 15.96875 C-7.03950928 15.57187988 -7.95401855 15.17500977 -8.89624023 14.76611328 C-10.67037689 13.99054994 -12.44101249 13.20690566 -14.20727539 12.41357422 C-30.18760954 5.36876419 -46.02352613 3.84225577 -62.828125 9.25390625 C-69.21426073 11.83224338 -75.36402767 14.97624545 -80.828125 19.19140625 C-83.828125 21.25390625 -83.828125 21.25390625 -86.953125 21.87890625 C-90.93881609 21.01245167 -92.42258697 19.5084577 -94.828125 16.25390625 C-95.27778435 12.7409426 -95.38791713 10.98947852 -93.2109375 8.12890625 C-64.36873376 -15.82309685 -32.76297006 -14.44328036 0 0 Z " fill="#FEFEFB" transform="translate(628.828125,762.74609375)"/>
      </g>
    </g>
  </g>
</svg>
